<svg xmlns="http://www.w3.org/2000/svg" width="800" height="400" viewBox="0 0 800 400"><defs><linearGradient id="chartGradient" x1="0%" x2="0%" y1="0%" y2="100%"><stop offset="0%" style="stop-color:#0ea5e9;stop-opacity:.8"/><stop offset="100%" style="stop-color:#0ea5e9;stop-opacity:.2"/></linearGradient><linearGradient id="axisGradient" x1="0%" x2="100%" y1="0%" y2="0%"><stop offset="0%" style="stop-color:#0ea5e9"/><stop offset="100%" style="stop-color:#8b5cf6"/></linearGradient><linearGradient id="textGradient" x1="0%" x2="100%" y1="0%" y2="0%"><stop offset="0%" style="stop-color:#0ea5e9"/><stop offset="50%" style="stop-color:#8b5cf6"/><stop offset="100%" style="stop-color:#10b981"/></linearGradient><filter id="glow"><feGaussianBlur result="coloredBlur" stdDeviation="3"/><feMerge><feMergeNode in="coloredBlur"/><feMergeNode in="SourceGraphic"/></feMerge></filter><style>@keyframes fadeIn{0%{opacity:0}to{opacity:1}}@keyframes slideInUp{0%{transform:translateY(50px);opacity:0}to{transform:translateY(0);opacity:1}}@keyframes pulse{0%,to{opacity:.7}50%{opacity:1}}@keyframes barGrow{0%{height:0}to{height:var(--final-height)}}@keyframes highlight{0%,to{opacity:.3}50%{opacity:1}}.axis-label,.axis-title{font-family:&quot;Inter&quot;,sans-serif;font-size:14px;fill:#e2e8f0;text-anchor:middle}.axis-title{font-size:16px;font-weight:700;fill:#0ea5e9}.bar{fill:url(#chartGradient);stroke:#0ea5e9;stroke-width:1;animation:barGrow 2s ease-out}.bar-highlight{fill:#10b981;stroke:#059669;stroke-width:2;animation:highlight 2s ease-in-out infinite}.grid-line{stroke:#334155;stroke-width:1;stroke-dasharray:5,5;opacity:.5}.axis-line{stroke:url(#axisGradient);stroke-width:2}.annotation{font-family:&quot;Inter&quot;,sans-serif;font-size:12px;fill:#94a3b8;text-anchor:middle}</style></defs><path fill="#0f172a" d="M0 0h800v400H0z" opacity=".1"/><text x="400" y="30" style="font-family:&quot;Inter&quot;,sans-serif;font-size:24px;font-weight:700;fill:url(#textGradient);filter:url(#glow);text-anchor:middle">Singular Values Distribution</text><path d="M80 60v280M80 340h640M80 130h640M80 200h640M80 270h640" class="grid-line"/><path d="M80 60v280" class="axis-line"/><text x="-10" y="145" class="axis-title" transform="rotate(-90 60 135)">Singular Values (σ)</text><text x="-15" y="285" class="axis-label" transform="translate(80 60)">0</text><text x="-15" y="215" class="axis-label" transform="translate(80 60)">σ₁</text><text x="-15" y="145" class="axis-label" transform="translate(80 60)">σ₂</text><text x="-15" y="75" class="axis-label" transform="translate(80 60)">σ₃</text><path d="M80 340h640" class="axis-line"/><text x="320" y="300" class="axis-title" transform="translate(80 60)">Rank (k)</text><text y="295" class="axis-label" transform="translate(80 60)">1</text><text x="64" y="295" class="axis-label" transform="translate(80 60)">10</text><text x="128" y="295" class="axis-label" transform="translate(80 60)">20</text><text x="192" y="295" class="axis-label" transform="translate(80 60)">30</text><text x="256" y="295" class="axis-label" transform="translate(80 60)">40</text><text x="320" y="295" class="axis-label" transform="translate(80 60)">50</text><text x="384" y="295" class="axis-label" transform="translate(80 60)">60</text><text x="448" y="295" class="axis-label" transform="translate(80 60)">70</text><text x="512" y="295" class="axis-label" transform="translate(80 60)">80</text><text x="576" y="295" class="axis-label" transform="translate(80 60)">90</text><text x="640" y="295" class="axis-label" transform="translate(80 60)">100</text><path d="M5 10h4v260H5z" class="bar" style="--final-height:260px" transform="translate(80 60)"/><path d="M15 20h4v250h-4z" class="bar" style="--final-height:250px" transform="translate(80 60)"/><path d="M25 30h4v240h-4z" class="bar" style="--final-height:240px" transform="translate(80 60)"/><path d="M35 40h4v230h-4z" class="bar" style="--final-height:230px" transform="translate(80 60)"/><path d="M45 50h4v220h-4z" class="bar" style="--final-height:220px" transform="translate(80 60)"/><path d="M55 60h4v210h-4z" class="bar" style="--final-height:210px" transform="translate(80 60)"/><path d="M65 70h4v200h-4z" class="bar" style="--final-height:200px" transform="translate(80 60)"/><path d="M75 80h4v190h-4z" class="bar" style="--final-height:190px" transform="translate(80 60)"/><path d="M85 90h4v180h-4z" class="bar" style="--final-height:180px" transform="translate(80 60)"/><path d="M95 100h4v170h-4z" class="bar" style="--final-height:170px" transform="translate(80 60)"/><path d="M105 110h4v160h-4z" class="bar" style="--final-height:160px" transform="translate(80 60)"/><path d="M115 120h4v150h-4z" class="bar" style="--final-height:150px" transform="translate(80 60)"/><path d="M125 130h4v140h-4z" class="bar" style="--final-height:140px" transform="translate(80 60)"/><path d="M135 140h4v130h-4z" class="bar" style="--final-height:130px" transform="translate(80 60)"/><path d="M145 150h4v120h-4z" class="bar" style="--final-height:120px" transform="translate(80 60)"/><path d="M155 160h4v110h-4z" class="bar" style="--final-height:110px" transform="translate(80 60)"/><path d="M165 170h4v100h-4z" class="bar" style="--final-height:100px" transform="translate(80 60)"/><path d="M175 180h4v90h-4z" class="bar" style="--final-height:90px" transform="translate(80 60)"/><path d="M185 190h4v80h-4z" class="bar" style="--final-height:80px" transform="translate(80 60)"/><path d="M195 200h4v70h-4z" class="bar" style="--final-height:70px" transform="translate(80 60)"/><path d="M205 210h4v60h-4z" class="bar" style="--final-height:60px" transform="translate(80 60)"/><path d="M215 220h4v50h-4z" class="bar" style="--final-height:50px" transform="translate(80 60)"/><path d="M225 230h4v40h-4z" class="bar" style="--final-height:40px" transform="translate(80 60)"/><path d="M235 240h4v30h-4z" class="bar" style="--final-height:30px" transform="translate(80 60)"/><path d="M245 250h4v20h-4z" class="bar" style="--final-height:20px" transform="translate(80 60)"/><path d="M255 260h4v10h-4z" class="bar" style="--final-height:10px" transform="translate(80 60)"/><path d="M265 265h4v5h-4z" class="bar" style="--final-height:5px" transform="translate(80 60)"/><path d="M275 270h4v3h-4z" class="bar" style="--final-height:3px" transform="translate(80 60)"/><path d="M285 272h4v2h-4z" class="bar" style="--final-height:2px" transform="translate(80 60)"/><path d="M295 273h4v1h-4z" class="bar" style="--final-height:1px" transform="translate(80 60)"/><path d="M305 274h4v1h-4z" class="bar" style="--final-height:1px" transform="translate(80 60)"/><path d="M315 275h4v1h-4z" class="bar" style="--final-height:1px" transform="translate(80 60)"/><path d="M325 276h4v1h-4z" class="bar" style="--final-height:1px" transform="translate(80 60)"/><path d="M335 277h4v1h-4z" class="bar" style="--final-height:1px" transform="translate(80 60)"/><path d="M345 278h4v1h-4z" class="bar" style="--final-height:1px" transform="translate(80 60)"/><path d="M85 70h4v260h-4zM95 80h4v250h-4zM105 90h4v240h-4zM115 100h4v230h-4zM125 110h4v220h-4zM135 120h4v210h-4zM145 130h4v200h-4zM155 140h4v190h-4zM165 150h4v180h-4zM175 160h4v170h-4zM185 170h4v160h-4zM195 180h4v150h-4zM205 190h4v140h-4zM215 200h4v130h-4zM225 210h4v120h-4zM235 220h4v110h-4zM245 230h4v100h-4zM255 240h4v90h-4zM265 250h4v80h-4zM275 260h4v70h-4zM285 270h4v60h-4zM295 280h4v50h-4zM305 290h4v40h-4zM315 300h4v30h-4zM325 310h4v20h-4zM335 320h4v10h-4zM345 325h4v5h-4zM355 330h4v3h-4zM365 332h4v2h-4zM375 333h4v1h-4zM385 334h4v1h-4zM395 335h4v1h-4zM405 336h4v1h-4zM415 337h4v1h-4zM425 338h4v1h-4z" class="bar-highlight"/><path d="M0 278h640" style="stroke:#ef4444;stroke-width:2;stroke-dasharray:10,5;opacity:.8" transform="translate(80 60)"/><text x="650" y="280" style="font-family:&quot;Inter&quot;,sans-serif;font-size:12px;fill:#ef4444;font-weight:700" transform="translate(80 60)">k = 30</text><text class="annotation" transform="translate(480 380)">Keep top k singular values</text><text y="20" class="annotation" transform="translate(480 380)">Discard remaining values</text><text y="40" style="font-family:&quot;Times New Roman&quot;,serif;font-size:14px;fill:#f59e0b;font-weight:700" transform="translate(480 380)">σ₁ ≥ σ₂ ≥ σ₃ ≥ ... ≥ σₙ</text><text class="annotation" font-size="14" transform="translate(400 380)">
      Most information captured by first few singular values
    </text><circle cx="360" cy="278" r="4" fill="#ef4444" opacity=".8"><animate attributeName="opacity" dur="2s" repeatCount="indefinite" values="0.3;1;0.3"/></circle></svg>