<svg xmlns="http://www.w3.org/2000/svg" width="900" height="500" viewBox="0 0 900 500"><defs><linearGradient id="originalGradient" x1="0%" x2="100%" y1="0%" y2="100%"><stop offset="0%" style="stop-color:#ef4444;stop-opacity:.8"/><stop offset="100%" style="stop-color:#dc2626;stop-opacity:.6"/></linearGradient><linearGradient id="compressedGradient" x1="0%" x2="100%" y1="0%" y2="100%"><stop offset="0%" style="stop-color:#10b981;stop-opacity:.8"/><stop offset="100%" style="stop-color:#059669;stop-opacity:.6"/></linearGradient><linearGradient id="textGradient" x1="0%" x2="100%" y1="0%" y2="0%"><stop offset="0%" style="stop-color:#0ea5e9"/><stop offset="50%" style="stop-color:#8b5cf6"/><stop offset="100%" style="stop-color:#10b981"/></linearGradient><filter id="glow"><feGaussianBlur result="coloredBlur" stdDeviation="3"/><feMerge><feMergeNode in="coloredBlur"/><feMergeNode in="SourceGraphic"/></feMerge></filter><filter id="shadow"><feDropShadow dx="2" dy="2" flood-color="#000" flood-opacity=".3" stdDeviation="3"/></filter><marker id="arrowhead" markerHeight="7" markerWidth="10" orient="auto" refX="9" refY="3.5"><path fill="#10b981" d="m0 0 10 3.5L0 7z"/></marker><style>@keyframes fadeIn{0%{opacity:0}to{opacity:1}}@keyframes slideInLeft{0%{transform:translateX(-100px);opacity:0}to{transform:translateX(0);opacity:1}}@keyframes slideInRight{0%{transform:translateX(100px);opacity:0}to{transform:translateX(0);opacity:1}}@keyframes pulse{0%,to{opacity:.7}50%{opacity:1}}@keyframes bounce{0%,20%,50%,80%,to{transform:translateY(0)}40%{transform:translateY(-10px)}60%{transform:translateY(-5px)}}@keyframes dataFlow{0%{stroke-dashoffset:100}to{stroke-dashoffset:0}}.section-title{font-size:20px;font-weight:700;fill:#e2e8f0}.metric-label,.metric-value,.section-title{font-family:&quot;Inter&quot;,sans-serif;text-anchor:middle}.metric-value{font-size:18px;font-weight:700;fill:#10b981}.metric-label{font-size:14px;fill:#94a3b8}.image-frame{fill:none;stroke:#0ea5e9;stroke-width:3;rx:8;filter:url(#shadow)}.pixel-grid{fill:url(#originalGradient);stroke:#0ea5e9;stroke-width:.5;animation:pulse 2s ease-in-out infinite}.compressed-pixel{fill:url(#compressedGradient);stroke:#10b981;stroke-width:.5;animation:pulse 2s ease-in-out infinite .5s}</style></defs><path fill="#0f172a" d="M0 0h900v500H0z" opacity=".1"/><text x="450" y="40" style="font-family:&quot;Inter&quot;,sans-serif;font-size:28px;font-weight:700;fill:url(#textGradient);filter:url(#glow);text-anchor:middle">Image Compression Comparison</text><g style="animation:slideInLeft 1s ease-out"><text x="200" y="-20" class="section-title" transform="translate(50 80)">Original Image</text><path d="M50 80h400v300H50z" class="image-frame"/><path d="M60 90h15v15H60z" class="pixel-grid"/><path d="M80 90h15v15H80z" class="pixel-grid"/><path d="M100 90h15v15h-15z" class="pixel-grid"/><path d="M120 90h15v15h-15z" class="pixel-grid"/><path d="M140 90h15v15h-15z" class="pixel-grid"/><path d="M160 90h15v15h-15z" class="pixel-grid"/><path d="M180 90h15v15h-15z" class="pixel-grid"/><path d="M200 90h15v15h-15z" class="pixel-grid"/><path d="M220 90h15v15h-15z" class="pixel-grid"/><path d="M240 90h15v15h-15z" class="pixel-grid"/><path d="M260 90h15v15h-15z" class="pixel-grid"/><path d="M280 90h15v15h-15z" class="pixel-grid"/><path d="M300 90h15v15h-15z" class="pixel-grid"/><path d="M320 90h15v15h-15z" class="pixel-grid"/><path d="M340 90h15v15h-15z" class="pixel-grid"/><path d="M360 90h15v15h-15z" class="pixel-grid"/><path d="M380 90h15v15h-15z" class="pixel-grid"/><path d="M400 90h15v15h-15z" class="pixel-grid"/><path d="M420 90h15v15h-15z" class="pixel-grid"/><path d="M60 110h15v15H60z" class="pixel-grid"/><path d="M80 110h15v15H80z" class="pixel-grid"/><path d="M100 110h15v15h-15z" class="pixel-grid"/><path d="M120 110h15v15h-15z" class="pixel-grid"/><path d="M140 110h15v15h-15z" class="pixel-grid"/><path d="M160 110h15v15h-15z" class="pixel-grid"/><path d="M180 110h15v15h-15z" class="pixel-grid"/><path d="M200 110h15v15h-15z" class="pixel-grid"/><path d="M220 110h15v15h-15z" class="pixel-grid"/><path d="M240 110h15v15h-15z" class="pixel-grid"/><path d="M260 110h15v15h-15z" class="pixel-grid"/><path d="M280 110h15v15h-15z" class="pixel-grid"/><path d="M300 110h15v15h-15z" class="pixel-grid"/><path d="M320 110h15v15h-15z" class="pixel-grid"/><path d="M340 110h15v15h-15z" class="pixel-grid"/><path d="M360 110h15v15h-15z" class="pixel-grid"/><path d="M380 110h15v15h-15z" class="pixel-grid"/><path d="M400 110h15v15h-15z" class="pixel-grid"/><path d="M420 110h15v15h-15z" class="pixel-grid"/><path d="M60 130h15v15H60z" class="pixel-grid"/><path d="M80 130h15v15H80z" class="pixel-grid"/><path d="M100 130h15v15h-15z" class="pixel-grid"/><path d="M120 130h15v15h-15z" class="pixel-grid"/><path d="M140 130h15v15h-15z" class="pixel-grid"/><path d="M160 130h15v15h-15z" class="pixel-grid"/><path d="M180 130h15v15h-15z" class="pixel-grid"/><path d="M200 130h15v15h-15z" class="pixel-grid"/><path d="M220 130h15v15h-15z" class="pixel-grid"/><path d="M240 130h15v15h-15z" class="pixel-grid"/><path d="M260 130h15v15h-15z" class="pixel-grid"/><path d="M280 130h15v15h-15z" class="pixel-grid"/><path d="M300 130h15v15h-15z" class="pixel-grid"/><path d="M320 130h15v15h-15z" class="pixel-grid"/><path d="M340 130h15v15h-15z" class="pixel-grid"/><path d="M360 130h15v15h-15z" class="pixel-grid"/><path d="M380 130h15v15h-15z" class="pixel-grid"/><path d="M400 130h15v15h-15z" class="pixel-grid"/><path d="M420 130h15v15h-15z" class="pixel-grid"/><text class="metric-value" transform="translate(250 400)">256×256</text><text y="20" class="metric-label" transform="translate(250 400)">Resolution</text><text y="50" class="metric-value" transform="translate(250 400)">65,536</text><text y="70" class="metric-label" transform="translate(250 400)">Pixels</text><text y="100" class="metric-value" transform="translate(250 400)">~65 KB</text><text y="120" class="metric-label" transform="translate(250 400)">File Size</text><text y="150" class="metric-value" transform="translate(250 400)">100%</text><text y="170" class="metric-label" transform="translate(250 400)">Quality</text></g><path d="M480 230h40" style="stroke:#10b981;stroke-width:3;stroke-dasharray:10,5;marker-end:url(#arrowhead);animation:dataFlow 3s linear infinite"/><g style="animation:slideInRight 1s ease-out .5s both"><text x="200" y="-20" class="section-title" transform="translate(550 80)">Compressed Image</text><path d="M550 80h400v300H550z" class="image-frame"/><path d="M560 90h30v30h-30z" class="compressed-pixel"/><path d="M600 90h30v30h-30z" class="compressed-pixel"/><path d="M640 90h30v30h-30z" class="compressed-pixel"/><path d="M680 90h30v30h-30z" class="compressed-pixel"/><path d="M720 90h30v30h-30z" class="compressed-pixel"/><path d="M760 90h30v30h-30z" class="compressed-pixel"/><path d="M800 90h30v30h-30z" class="compressed-pixel"/><path d="M840 90h30v30h-30z" class="compressed-pixel"/><path d="M880 90h30v30h-30z" class="compressed-pixel"/><path d="M920 90h30v30h-30z" class="compressed-pixel"/><path d="M560 130h30v30h-30z" class="compressed-pixel"/><path d="M600 130h30v30h-30z" class="compressed-pixel"/><path d="M640 130h30v30h-30z" class="compressed-pixel"/><path d="M680 130h30v30h-30z" class="compressed-pixel"/><path d="M720 130h30v30h-30z" class="compressed-pixel"/><path d="M760 130h30v30h-30z" class="compressed-pixel"/><path d="M800 130h30v30h-30z" class="compressed-pixel"/><path d="M840 130h30v30h-30z" class="compressed-pixel"/><path d="M880 130h30v30h-30z" class="compressed-pixel"/><path d="M920 130h30v30h-30z" class="compressed-pixel"/><path d="M560 170h30v30h-30z" class="compressed-pixel"/><path d="M600 170h30v30h-30z" class="compressed-pixel"/><path d="M640 170h30v30h-30z" class="compressed-pixel"/><path d="M680 170h30v30h-30z" class="compressed-pixel"/><path d="M720 170h30v30h-30z" class="compressed-pixel"/><path d="M760 170h30v30h-30z" class="compressed-pixel"/><path d="M800 170h30v30h-30z" class="compressed-pixel"/><path d="M840 170h30v30h-30z" class="compressed-pixel"/><path d="M880 170h30v30h-30z" class="compressed-pixel"/><path d="M920 170h30v30h-30z" class="compressed-pixel"/><path d="M560 210h30v30h-30z" class="compressed-pixel"/><path d="M600 210h30v30h-30z" class="compressed-pixel"/><path d="M640 210h30v30h-30z" class="compressed-pixel"/><path d="M680 210h30v30h-30z" class="compressed-pixel"/><path d="M720 210h30v30h-30z" class="compressed-pixel"/><path d="M760 210h30v30h-30z" class="compressed-pixel"/><path d="M800 210h30v30h-30z" class="compressed-pixel"/><path d="M840 210h30v30h-30z" class="compressed-pixel"/><path d="M880 210h30v30h-30z" class="compressed-pixel"/><path d="M920 210h30v30h-30z" class="compressed-pixel"/><path d="M560 250h30v30h-30z" class="compressed-pixel"/><path d="M600 250h30v30h-30z" class="compressed-pixel"/><path d="M640 250h30v30h-30z" class="compressed-pixel"/><path d="M680 250h30v30h-30z" class="compressed-pixel"/><path d="M720 250h30v30h-30z" class="compressed-pixel"/><path d="M760 250h30v30h-30z" class="compressed-pixel"/><path d="M800 250h30v30h-30z" class="compressed-pixel"/><path d="M840 250h30v30h-30z" class="compressed-pixel"/><path d="M880 250h30v30h-30z" class="compressed-pixel"/><path d="M920 250h30v30h-30z" class="compressed-pixel"/><path d="M560 290h30v30h-30z" class="compressed-pixel"/><path d="M600 290h30v30h-30z" class="compressed-pixel"/><path d="M640 290h30v30h-30z" class="compressed-pixel"/><path d="M680 290h30v30h-30z" class="compressed-pixel"/><path d="M720 290h30v30h-30z" class="compressed-pixel"/><path d="M760 290h30v30h-30z" class="compressed-pixel"/><path d="M800 290h30v30h-30z" class="compressed-pixel"/><path d="M840 290h30v30h-30z" class="compressed-pixel"/><path d="M880 290h30v30h-30z" class="compressed-pixel"/><path d="M920 290h30v30h-30z" class="compressed-pixel"/><path d="M560 330h30v30h-30z" class="compressed-pixel"/><path d="M600 330h30v30h-30z" class="compressed-pixel"/><path d="M640 330h30v30h-30z" class="compressed-pixel"/><path d="M680 330h30v30h-30z" class="compressed-pixel"/><path d="M720 330h30v30h-30z" class="compressed-pixel"/><path d="M760 330h30v30h-30z" class="compressed-pixel"/><path d="M800 330h30v30h-30z" class="compressed-pixel"/><path d="M840 330h30v30h-30z" class="compressed-pixel"/><path d="M880 330h30v30h-30z" class="compressed-pixel"/><path d="M920 330h30v30h-30z" class="compressed-pixel"/><text class="metric-value" transform="translate(750 400)">256×256</text><text y="20" class="metric-label" transform="translate(750 400)">Resolution</text><text y="50" class="metric-value" transform="translate(750 400)">~15,630</text><text y="70" class="metric-label" transform="translate(750 400)">SVD Values</text><text y="100" class="metric-value" transform="translate(750 400)">~15 KB</text><text y="120" class="metric-label" transform="translate(750 400)">File Size</text><text y="150" class="metric-value" transform="translate(750 400)">~95%</text><text y="170" class="metric-label" transform="translate(750 400)">Quality</text></g><path d="M-80-25H80v50H-80z" style="fill:#10b981;stroke:#059669;stroke-width:2;rx:15;animation:bounce 2s ease-in-out infinite" transform="translate(450 400)"/><text fill="#fff" class="metric-value" font-size="20" transform="translate(450 400)">77%</text><text y="20" fill="#fff" class="metric-label" transform="translate(450 400)">Compression</text><circle cx="480" cy="230" r="4" fill="#10b981" opacity=".8"><animate attributeName="opacity" dur="2s" repeatCount="indefinite" values="0.3;1;0.3"/></circle><circle cx="520" cy="230" r="4" fill="#10b981" opacity=".8"><animate attributeName="opacity" begin="0.5s" dur="2s" repeatCount="indefinite" values="0.3;1;0.3"/></circle></svg>