<svg xmlns="http://www.w3.org/2000/svg" viewBox="0 0 32 32" width="32" height="32">
  <defs>
    <linearGradient id="bg" x1="0%" y1="0%" x2="100%" y2="100%">
      <stop offset="0%" style="stop-color:#1e1b4b"/>
      <stop offset="100%" style="stop-color:#0f172a"/>
    </linearGradient>
    <linearGradient id="matrix" x1="0%" y1="0%" x2="100%" y2="0%">
      <stop offset="0%" style="stop-color:#8b5cf6"/>
      <stop offset="50%" style="stop-color:#06b6d4"/>
      <stop offset="100%" style="stop-color:#10b981"/>
    </linearGradient>
  </defs>
  
  <!-- Background -->
  <rect width="32" height="32" rx="6" fill="url(#bg)"/>
  
  <!-- Matrix A -->
  <rect x="4" y="8" width="8" height="16" fill="none" stroke="url(#matrix)" stroke-width="2" rx="1"/>
  <circle cx="6" cy="12" r="1" fill="#8b5cf6"/>
  <circle cx="10" cy="12" r="1" fill="#06b6d4"/>
  <circle cx="6" cy="16" r="1" fill="#06b6d4"/>
  <circle cx="10" cy="16" r="1" fill="#10b981"/>
  <circle cx="6" cy="20" r="1" fill="#10b981"/>
  <circle cx="10" cy="20" r="1" fill="#8b5cf6"/>
  
  <!-- Arrow -->
  <path d="M14 15 L18 15 M16 13 L18 15 L16 17" stroke="#ffffff" stroke-width="1.5" fill="none" opacity="0.8"/>
  
  <!-- Compressed result -->
  <rect x="20" y="12" width="8" height="8" fill="none" stroke="#10b981" stroke-width="2" rx="1"/>
  <circle cx="22" cy="14" r="0.8" fill="#10b981"/>
  <circle cx="26" cy="14" r="0.8" fill="#06b6d4"/>
  <circle cx="22" cy="18" r="0.8" fill="#06b6d4"/>
  <circle cx="26" cy="18" r="0.8" fill="#8b5cf6"/>
  
  <!-- SVD label -->
  <text x="16" y="28" text-anchor="middle" font-family="monospace" font-size="5" fill="url(#matrix)" font-weight="bold">SVD</text>
</svg>