<svg xmlns="http://www.w3.org/2000/svg" width="900" height="500" viewBox="0 0 900 500">
  <defs>
    <!-- Green gradient for original image -->
    <linearGradient id="originalGradient" x1="0%" x2="100%" y1="0%" y2="100%">
      <stop offset="0%" style="stop-color:#10b981;stop-opacity:0.8"/>
      <stop offset="100%" style="stop-color:#059669;stop-opacity:0.6"/>
    </linearGradient>
    
    <!-- Red gradient for compressed image -->
    <linearGradient id="compressedGradient" x1="0%" x2="100%" y1="0%" y2="100%">
      <stop offset="0%" style="stop-color:#ef4444;stop-opacity:0.8"/>
      <stop offset="100%" style="stop-color:#dc2626;stop-opacity:0.6"/>
    </linearGradient>
    
    <!-- Text gradient -->
    <linearGradient id="textGradient" x1="0%" x2="100%" y1="0%" y2="0%">
      <stop offset="0%" style="stop-color:#0ea5e9"/>
      <stop offset="50%" style="stop-color:#8b5cf6"/>
      <stop offset="100%" style="stop-color:#10b981"/>
    </linearGradient>
    
    <!-- Filters -->
    <filter id="glow">
      <feGaussianBlur result="coloredBlur" stdDeviation="3"/>
      <feMerge> 
        <feMergeNode in="coloredBlur"/>
        <feMergeNode in="SourceGraphic"/>
      </feMerge>
    </filter>
    
    <filter id="shadow">
      <feDropShadow dx="2" dy="2" flood-color="#000" flood-opacity="0.3" stdDeviation="3"/>
    </filter>
    
    <!-- Arrow marker -->
    <marker id="arrowhead" markerWidth="10" markerHeight="7" refX="9" refY="3.5" orient="auto">
      <polygon points="0 0, 10 3.5, 0 7" fill="#10b981"/>
    </marker>
    
    <style>
      .title {
        font-family: 'Inter', sans-serif;
        font-size: 28px;
        font-weight: 700;
        fill: url(#textGradient);
        filter: url(#glow);
        text-anchor: middle;
      }
      .section-title {
        font-family: 'Inter', sans-serif;
        font-size: 20px;
        font-weight: 700;
        fill: #e2e8f0;
        text-anchor: middle;
      }
      .metric-value {
        font-family: 'Inter', sans-serif;
        font-size: 16px;
        font-weight: 700;
        fill: #10b981;
        text-anchor: middle;
      }
      .metric-label {
        font-family: 'Inter', sans-serif;
        font-size: 12px;
        fill: #94a3b8;
        text-anchor: middle;
      }
      .background-card {
        fill: #1e293b;
        stroke: #334155;
        stroke-width: 2;
        rx: 12;
        filter: url(#shadow);
      }
      .image-frame {
        fill: none;
        stroke: #0ea5e9;
        stroke-width: 3;
        rx: 8;
        filter: url(#shadow);
      }
      .original-pixel {
        fill: url(#originalGradient);
        stroke: #10b981;
        stroke-width: 0.5;
      }
      .compressed-pixel {
        fill: url(#compressedGradient);
        stroke: #ef4444;
        stroke-width: 0.5;
      }
      .savings-badge {
        fill: #10b981;
        stroke: #059669;
        stroke-width: 2;
        rx: 15;
      }
      @keyframes pulse {
        0%, 100% { opacity: 0.7; }
        50% { opacity: 1; }
      }
      @keyframes dataFlow {
        0% { stroke-dashoffset: 100; }
        100% { stroke-dashoffset: 0; }
      }
    </style>
  </defs>
  
  <!-- Background -->
  <rect width="900" height="500" fill="#0f172a" opacity="0.1"/>
  
  <!-- Title -->
  <text x="450" y="40" class="title">Image Compression Comparison</text>
  
  <!-- Original Image Section (LEFT) -->
  <g class="original-section" transform="translate(50, 80)">
    <!-- Background card -->
    <rect x="0" y="0" width="320" height="350" class="background-card"/>
    
    <!-- Section title -->
    <text x="160" y="30" class="section-title">Original Image</text>
    
    <!-- Image frame -->
    <rect x="23.5" y="53.5" width="280" height="200" class="image-frame"/>
    
    <!-- Dense green pixel grid (many small squares) -->
    <g transform="translate(30, 60)">
      <!-- Row 1 -->
      <rect x="0" y="0" width="8" height="8" class="original-pixel"/>
      <rect x="10" y="0" width="8" height="8" class="original-pixel"/>
      <rect x="20" y="0" width="8" height="8" class="original-pixel"/>
      <rect x="30" y="0" width="8" height="8" class="original-pixel"/>
      <rect x="40" y="0" width="8" height="8" class="original-pixel"/>
      <rect x="50" y="0" width="8" height="8" class="original-pixel"/>
      <rect x="60" y="0" width="8" height="8" class="original-pixel"/>
      <rect x="70" y="0" width="8" height="8" class="original-pixel"/>
      <rect x="80" y="0" width="8" height="8" class="original-pixel"/>
      <rect x="90" y="0" width="8" height="8" class="original-pixel"/>
      <rect x="100" y="0" width="8" height="8" class="original-pixel"/>
      <rect x="110" y="0" width="8" height="8" class="original-pixel"/>
      <rect x="120" y="0" width="8" height="8" class="original-pixel"/>
      <rect x="130" y="0" width="8" height="8" class="original-pixel"/>
      <rect x="140" y="0" width="8" height="8" class="original-pixel"/>
      <rect x="150" y="0" width="8" height="8" class="original-pixel"/>
      <rect x="160" y="0" width="8" height="8" class="original-pixel"/>
      <rect x="170" y="0" width="8" height="8" class="original-pixel"/>
      <rect x="180" y="0" width="8" height="8" class="original-pixel"/>
      <rect x="190" y="0" width="8" height="8" class="original-pixel"/>
      <rect x="200" y="0" width="8" height="8" class="original-pixel"/>
      <rect x="210" y="0" width="8" height="8" class="original-pixel"/>
      <rect x="220" y="0" width="8" height="8" class="original-pixel"/>
      <rect x="230" y="0" width="8" height="8" class="original-pixel"/>
      <rect x="240" y="0" width="8" height="8" class="original-pixel"/>
      <rect x="250" y="0" width="8" height="8" class="original-pixel"/>
      <rect x="260" y="0" width="8" height="8" class="original-pixel"/>
      
      <!-- Row 2 -->
      <rect x="0" y="12" width="8" height="8" class="original-pixel"/>
      <rect x="10" y="12" width="8" height="8" class="original-pixel"/>
      <rect x="20" y="12" width="8" height="8" class="original-pixel"/>
      <rect x="30" y="12" width="8" height="8" class="original-pixel"/>
      <rect x="40" y="12" width="8" height="8" class="original-pixel"/>
      <rect x="50" y="12" width="8" height="8" class="original-pixel"/>
      <rect x="60" y="12" width="8" height="8" class="original-pixel"/>
      <rect x="70" y="12" width="8" height="8" class="original-pixel"/>
      <rect x="80" y="12" width="8" height="8" class="original-pixel"/>
      <rect x="90" y="12" width="8" height="8" class="original-pixel"/>
      <rect x="100" y="12" width="8" height="8" class="original-pixel"/>
      <rect x="110" y="12" width="8" height="8" class="original-pixel"/>
      <rect x="120" y="12" width="8" height="8" class="original-pixel"/>
      <rect x="130" y="12" width="8" height="8" class="original-pixel"/>
      <rect x="140" y="12" width="8" height="8" class="original-pixel"/>
      <rect x="150" y="12" width="8" height="8" class="original-pixel"/>
      <rect x="160" y="12" width="8" height="8" class="original-pixel"/>
      <rect x="170" y="12" width="8" height="8" class="original-pixel"/>
      <rect x="180" y="12" width="8" height="8" class="original-pixel"/>
      <rect x="190" y="12" width="8" height="8" class="original-pixel"/>
      <rect x="200" y="12" width="8" height="8" class="original-pixel"/>
      <rect x="210" y="12" width="8" height="8" class="original-pixel"/>
      <rect x="220" y="12" width="8" height="8" class="original-pixel"/>
      <rect x="230" y="12" width="8" height="8" class="original-pixel"/>
      <rect x="240" y="12" width="8" height="8" class="original-pixel"/>
      <rect x="250" y="12" width="8" height="8" class="original-pixel"/>
      <rect x="260" y="12" width="8" height="8" class="original-pixel"/>
      
      <!-- Continue pattern for more rows -->
      <rect x="0" y="24" width="8" height="8" class="original-pixel"/>
      <rect x="10" y="24" width="8" height="8" class="original-pixel"/>
      <rect x="20" y="24" width="8" height="8" class="original-pixel"/>
      <rect x="30" y="24" width="8" height="8" class="original-pixel"/>
      <rect x="40" y="24" width="8" height="8" class="original-pixel"/>
      <rect x="50" y="24" width="8" height="8" class="original-pixel"/>
      <rect x="60" y="24" width="8" height="8" class="original-pixel"/>
      <rect x="70" y="24" width="8" height="8" class="original-pixel"/>
      <rect x="80" y="24" width="8" height="8" class="original-pixel"/>
      <rect x="90" y="24" width="8" height="8" class="original-pixel"/>
      <rect x="100" y="24" width="8" height="8" class="original-pixel"/>
      <rect x="110" y="24" width="8" height="8" class="original-pixel"/>
      <rect x="120" y="24" width="8" height="8" class="original-pixel"/>
      <rect x="130" y="24" width="8" height="8" class="original-pixel"/>
      <rect x="140" y="24" width="8" height="8" class="original-pixel"/>
      <rect x="150" y="24" width="8" height="8" class="original-pixel"/>
      <rect x="160" y="24" width="8" height="8" class="original-pixel"/>
      <rect x="170" y="24" width="8" height="8" class="original-pixel"/>
      <rect x="180" y="24" width="8" height="8" class="original-pixel"/>
      <rect x="190" y="24" width="8" height="8" class="original-pixel"/>
      <rect x="200" y="24" width="8" height="8" class="original-pixel"/>
      <rect x="210" y="24" width="8" height="8" class="original-pixel"/>
      <rect x="220" y="24" width="8" height="8" class="original-pixel"/>
      <rect x="230" y="24" width="8" height="8" class="original-pixel"/>
      <rect x="240" y="24" width="8" height="8" class="original-pixel"/>
      <rect x="250" y="24" width="8" height="8" class="original-pixel"/>
      <rect x="260" y="24" width="8" height="8" class="original-pixel"/>
      
      <!-- Additional rows for density -->
      <rect x="0" y="36" width="8" height="8" class="original-pixel"/>
      <rect x="10" y="36" width="8" height="8" class="original-pixel"/>
      <rect x="20" y="36" width="8" height="8" class="original-pixel"/>
      <rect x="30" y="36" width="8" height="8" class="original-pixel"/>
      <rect x="40" y="36" width="8" height="8" class="original-pixel"/>
      <rect x="50" y="36" width="8" height="8" class="original-pixel"/>
      <rect x="60" y="36" width="8" height="8" class="original-pixel"/>
      <rect x="70" y="36" width="8" height="8" class="original-pixel"/>
      <rect x="80" y="36" width="8" height="8" class="original-pixel"/>
      <rect x="90" y="36" width="8" height="8" class="original-pixel"/>
      <rect x="100" y="36" width="8" height="8" class="original-pixel"/>
      <rect x="110" y="36" width="8" height="8" class="original-pixel"/>
      <rect x="120" y="36" width="8" height="8" class="original-pixel"/>
      <rect x="130" y="36" width="8" height="8" class="original-pixel"/>
      <rect x="140" y="36" width="8" height="8" class="original-pixel"/>
      <rect x="150" y="36" width="8" height="8" class="original-pixel"/>
      <rect x="160" y="36" width="8" height="8" class="original-pixel"/>
      <rect x="170" y="36" width="8" height="8" class="original-pixel"/>
      <rect x="180" y="36" width="8" height="8" class="original-pixel"/>
      <rect x="190" y="36" width="8" height="8" class="original-pixel"/>
      <rect x="200" y="36" width="8" height="8" class="original-pixel"/>
      <rect x="210" y="36" width="8" height="8" class="original-pixel"/>
      <rect x="220" y="36" width="8" height="8" class="original-pixel"/>
      <rect x="230" y="36" width="8" height="8" class="original-pixel"/>
      <rect x="240" y="36" width="8" height="8" class="original-pixel"/>
      <rect x="250" y="36" width="8" height="8" class="original-pixel"/>
      <rect x="260" y="36" width="8" height="8" class="original-pixel"/>

      <rect x="0" y="48" width="8" height="8" class="original-pixel"/>
      <rect x="10" y="48" width="8" height="8" class="original-pixel"/>
      <rect x="20" y="48" width="8" height="8" class="original-pixel"/>
      <rect x="30" y="48" width="8" height="8" class="original-pixel"/>
      <rect x="40" y="48" width="8" height="8" class="original-pixel"/>
      <rect x="50" y="48" width="8" height="8" class="original-pixel"/>
      <rect x="60" y="48" width="8" height="8" class="original-pixel"/>
      <rect x="70" y="48" width="8" height="8" class="original-pixel"/>
      <rect x="80" y="48" width="8" height="8" class="original-pixel"/>
      <rect x="90" y="48" width="8" height="8" class="original-pixel"/>
      <rect x="100" y="48" width="8" height="8" class="original-pixel"/>
      <rect x="110" y="48" width="8" height="8" class="original-pixel"/>
      <rect x="120" y="48" width="8" height="8" class="original-pixel"/>
      <rect x="130" y="48" width="8" height="8" class="original-pixel"/>
      <rect x="140" y="48" width="8" height="8" class="original-pixel"/>
      <rect x="150" y="48" width="8" height="8" class="original-pixel"/>
      <rect x="160" y="48" width="8" height="8" class="original-pixel"/>
      <rect x="170" y="48" width="8" height="8" class="original-pixel"/>
      <rect x="180" y="48" width="8" height="8" class="original-pixel"/>
      <rect x="190" y="48" width="8" height="8" class="original-pixel"/>
      <rect x="200" y="48" width="8" height="8" class="original-pixel"/>
      <rect x="210" y="48" width="8" height="8" class="original-pixel"/>
      <rect x="220" y="48" width="8" height="8" class="original-pixel"/>
      <rect x="230" y="48" width="8" height="8" class="original-pixel"/>
      <rect x="240" y="48" width="8" height="8" class="original-pixel"/>
      <rect x="250" y="48" width="8" height="8" class="original-pixel"/>
      <rect x="260" y="48" width="8" height="8" class="original-pixel"/>

      <rect x="0" y="60" width="8" height="8" class="original-pixel"/>
      <rect x="10" y="60" width="8" height="8" class="original-pixel"/>
      <rect x="20" y="60" width="8" height="8" class="original-pixel"/>
      <rect x="30" y="60" width="8" height="8" class="original-pixel"/>
      <rect x="40" y="60" width="8" height="8" class="original-pixel"/>
      <rect x="50" y="60" width="8" height="8" class="original-pixel"/>
      <rect x="60" y="60" width="8" height="8" class="original-pixel"/>
      <rect x="70" y="60" width="8" height="8" class="original-pixel"/>
      <rect x="80" y="60" width="8" height="8" class="original-pixel"/>
      <rect x="90" y="60" width="8" height="8" class="original-pixel"/>
      <rect x="100" y="60" width="8" height="8" class="original-pixel"/>
      <rect x="110" y="60" width="8" height="8" class="original-pixel"/>
      <rect x="120" y="60" width="8" height="8" class="original-pixel"/>
      <rect x="130" y="60" width="8" height="8" class="original-pixel"/>
      <rect x="140" y="60" width="8" height="8" class="original-pixel"/>
      <rect x="150" y="60" width="8" height="8" class="original-pixel"/>
      <rect x="160" y="60" width="8" height="8" class="original-pixel"/>
      <rect x="170" y="60" width="8" height="8" class="original-pixel"/>
      <rect x="180" y="60" width="8" height="8" class="original-pixel"/>
      <rect x="190" y="60" width="8" height="8" class="original-pixel"/>
      <rect x="200" y="60" width="8" height="8" class="original-pixel"/>
      <rect x="210" y="60" width="8" height="8" class="original-pixel"/>
      <rect x="220" y="60" width="8" height="8" class="original-pixel"/>
      <rect x="230" y="60" width="8" height="8" class="original-pixel"/>
      <rect x="240" y="60" width="8" height="8" class="original-pixel"/>
      <rect x="250" y="60" width="8" height="8" class="original-pixel"/>
      <rect x="260" y="60" width="8" height="8" class="original-pixel"/>

      <rect x="0" y="72" width="8" height="8" class="original-pixel"/>
      <rect x="10" y="72" width="8" height="8" class="original-pixel"/>
      <rect x="20" y="72" width="8" height="8" class="original-pixel"/>
      <rect x="30" y="72" width="8" height="8" class="original-pixel"/>
      <rect x="40" y="72" width="8" height="8" class="original-pixel"/>
      <rect x="50" y="72" width="8" height="8" class="original-pixel"/>
      <rect x="60" y="72" width="8" height="8" class="original-pixel"/>
      <rect x="70" y="72" width="8" height="8" class="original-pixel"/>
      <rect x="80" y="72" width="8" height="8" class="original-pixel"/>
      <rect x="90" y="72" width="8" height="8" class="original-pixel"/>
      <rect x="100" y="72" width="8" height="8" class="original-pixel"/>
      <rect x="110" y="72" width="8" height="8" class="original-pixel"/>
      <rect x="120" y="72" width="8" height="8" class="original-pixel"/>
      <rect x="130" y="72" width="8" height="8" class="original-pixel"/>
      <rect x="140" y="72" width="8" height="8" class="original-pixel"/>
      <rect x="150" y="72" width="8" height="8" class="original-pixel"/>
      <rect x="160" y="72" width="8" height="8" class="original-pixel"/>
      <rect x="170" y="72" width="8" height="8" class="original-pixel"/>
      <rect x="180" y="72" width="8" height="8" class="original-pixel"/>
      <rect x="190" y="72" width="8" height="8" class="original-pixel"/>
      <rect x="200" y="72" width="8" height="8" class="original-pixel"/>
      <rect x="210" y="72" width="8" height="8" class="original-pixel"/>
      <rect x="220" y="72" width="8" height="8" class="original-pixel"/>
      <rect x="230" y="72" width="8" height="8" class="original-pixel"/>
      <rect x="240" y="72" width="8" height="8" class="original-pixel"/>
      <rect x="250" y="72" width="8" height="8" class="original-pixel"/>
      <rect x="260" y="72" width="8" height="8" class="original-pixel"/>

      <rect x="0" y="84" width="8" height="8" class="original-pixel"/>
      <rect x="10" y="84" width="8" height="8" class="original-pixel"/>
      <rect x="20" y="84" width="8" height="8" class="original-pixel"/>
      <rect x="30" y="84" width="8" height="8" class="original-pixel"/>
      <rect x="40" y="84" width="8" height="8" class="original-pixel"/>
      <rect x="50" y="84" width="8" height="8" class="original-pixel"/>
      <rect x="60" y="84" width="8" height="8" class="original-pixel"/>
      <rect x="70" y="84" width="8" height="8" class="original-pixel"/>
      <rect x="80" y="84" width="8" height="8" class="original-pixel"/>
      <rect x="90" y="84" width="8" height="8" class="original-pixel"/>
      <rect x="100" y="84" width="8" height="8" class="original-pixel"/>
      <rect x="110" y="84" width="8" height="8" class="original-pixel"/>
      <rect x="120" y="84" width="8" height="8" class="original-pixel"/>
      <rect x="130" y="84" width="8" height="8" class="original-pixel"/>
      <rect x="140" y="84" width="8" height="8" class="original-pixel"/>
      <rect x="150" y="84" width="8" height="8" class="original-pixel"/>
      <rect x="160" y="84" width="8" height="8" class="original-pixel"/>
      <rect x="170" y="84" width="8" height="8" class="original-pixel"/>
      <rect x="180" y="84" width="8" height="8" class="original-pixel"/>
      <rect x="190" y="84" width="8" height="8" class="original-pixel"/>
      <rect x="200" y="84" width="8" height="8" class="original-pixel"/>
      <rect x="210" y="84" width="8" height="8" class="original-pixel"/>
      <rect x="220" y="84" width="8" height="8" class="original-pixel"/>
      <rect x="230" y="84" width="8" height="8" class="original-pixel"/>
      <rect x="240" y="84" width="8" height="8" class="original-pixel"/>
      <rect x="250" y="84" width="8" height="8" class="original-pixel"/>
      <rect x="260" y="84" width="8" height="8" class="original-pixel"/>

      <rect x="0" y="96" width="8" height="8" class="original-pixel"/>
      <rect x="10" y="96" width="8" height="8" class="original-pixel"/>
      <rect x="20" y="96" width="8" height="8" class="original-pixel"/>
      <rect x="30" y="96" width="8" height="8" class="original-pixel"/>
      <rect x="40" y="96" width="8" height="8" class="original-pixel"/>
      <rect x="50" y="96" width="8" height="8" class="original-pixel"/>
      <rect x="60" y="96" width="8" height="8" class="original-pixel"/>
      <rect x="70" y="96" width="8" height="8" class="original-pixel"/>
      <rect x="80" y="96" width="8" height="8" class="original-pixel"/>
      <rect x="90" y="96" width="8" height="8" class="original-pixel"/>
      <rect x="100" y="96" width="8" height="8" class="original-pixel"/>
      <rect x="110" y="96" width="8" height="8" class="original-pixel"/>
      <rect x="120" y="96" width="8" height="8" class="original-pixel"/>
      <rect x="130" y="96" width="8" height="8" class="original-pixel"/>
      <rect x="140" y="96" width="8" height="8" class="original-pixel"/>
      <rect x="150" y="96" width="8" height="8" class="original-pixel"/>
      <rect x="160" y="96" width="8" height="8" class="original-pixel"/>
      <rect x="170" y="96" width="8" height="8" class="original-pixel"/>
      <rect x="180" y="96" width="8" height="8" class="original-pixel"/>
      <rect x="190" y="96" width="8" height="8" class="original-pixel"/>
      <rect x="200" y="96" width="8" height="8" class="original-pixel"/>
      <rect x="210" y="96" width="8" height="8" class="original-pixel"/>
      <rect x="220" y="96" width="8" height="8" class="original-pixel"/>
      <rect x="230" y="96" width="8" height="8" class="original-pixel"/>
      <rect x="240" y="96" width="8" height="8" class="original-pixel"/>
      <rect x="250" y="96" width="8" height="8" class="original-pixel"/>
      <rect x="260" y="96" width="8" height="8" class="original-pixel"/>

      <rect x="0" y="108" width="8" height="8" class="original-pixel"/>
      <rect x="10" y="108" width="8" height="8" class="original-pixel"/>
      <rect x="20" y="108" width="8" height="8" class="original-pixel"/>
      <rect x="30" y="108" width="8" height="8" class="original-pixel"/>
      <rect x="40" y="108" width="8" height="8" class="original-pixel"/>
      <rect x="50" y="108" width="8" height="8" class="original-pixel"/>
      <rect x="60" y="108" width="8" height="8" class="original-pixel"/>
      <rect x="70" y="108" width="8" height="8" class="original-pixel"/>
      <rect x="80" y="108" width="8" height="8" class="original-pixel"/>
      <rect x="90" y="108" width="8" height="8" class="original-pixel"/>
      <rect x="100" y="108" width="8" height="8" class="original-pixel"/>
      <rect x="110" y="108" width="8" height="8" class="original-pixel"/>
      <rect x="120" y="108" width="8" height="8" class="original-pixel"/>
      <rect x="130" y="108" width="8" height="8" class="original-pixel"/>
      <rect x="140" y="108" width="8" height="8" class="original-pixel"/>
      <rect x="150" y="108" width="8" height="8" class="original-pixel"/>
      <rect x="160" y="108" width="8" height="8" class="original-pixel"/>
      <rect x="170" y="108" width="8" height="8" class="original-pixel"/>
      <rect x="180" y="108" width="8" height="8" class="original-pixel"/>
      <rect x="190" y="108" width="8" height="8" class="original-pixel"/>
      <rect x="200" y="108" width="8" height="8" class="original-pixel"/>
      <rect x="210" y="108" width="8" height="8" class="original-pixel"/>
      <rect x="220" y="108" width="8" height="8" class="original-pixel"/>
      <rect x="230" y="108" width="8" height="8" class="original-pixel"/>
      <rect x="240" y="108" width="8" height="8" class="original-pixel"/>
      <rect x="250" y="108" width="8" height="8" class="original-pixel"/>
      <rect x="260" y="108" width="8" height="8" class="original-pixel"/>

      <rect x="0" y="120" width="8" height="8" class="original-pixel"/>
      <rect x="10" y="120" width="8" height="8" class="original-pixel"/>
      <rect x="20" y="120" width="8" height="8" class="original-pixel"/>
      <rect x="30" y="120" width="8" height="8" class="original-pixel"/>
      <rect x="40" y="120" width="8" height="8" class="original-pixel"/>
      <rect x="50" y="120" width="8" height="8" class="original-pixel"/>
      <rect x="60" y="120" width="8" height="8" class="original-pixel"/>
      <rect x="70" y="120" width="8" height="8" class="original-pixel"/>
      <rect x="80" y="120" width="8" height="8" class="original-pixel"/>
      <rect x="90" y="120" width="8" height="8" class="original-pixel"/>
      <rect x="100" y="120" width="8" height="8" class="original-pixel"/>
      <rect x="110" y="120" width="8" height="8" class="original-pixel"/>
      <rect x="120" y="120" width="8" height="8" class="original-pixel"/>
      <rect x="130" y="120" width="8" height="8" class="original-pixel"/>
      <rect x="140" y="120" width="8" height="8" class="original-pixel"/>
      <rect x="150" y="120" width="8" height="8" class="original-pixel"/>
      <rect x="160" y="120" width="8" height="8" class="original-pixel"/>
      <rect x="170" y="120" width="8" height="8" class="original-pixel"/>
      <rect x="180" y="120" width="8" height="8" class="original-pixel"/>
      <rect x="190" y="120" width="8" height="8" class="original-pixel"/>
      <rect x="200" y="120" width="8" height="8" class="original-pixel"/>
      <rect x="210" y="120" width="8" height="8" class="original-pixel"/>
      <rect x="220" y="120" width="8" height="8" class="original-pixel"/>
      <rect x="230" y="120" width="8" height="8" class="original-pixel"/>
      <rect x="240" y="120" width="8" height="8" class="original-pixel"/>
      <rect x="250" y="120" width="8" height="8" class="original-pixel"/>
      <rect x="260" y="120" width="8" height="8" class="original-pixel"/>

      <rect x="0" y="132" width="8" height="8" class="original-pixel"/>
      <rect x="10" y="132" width="8" height="8" class="original-pixel"/>
      <rect x="20" y="132" width="8" height="8" class="original-pixel"/>
      <rect x="30" y="132" width="8" height="8" class="original-pixel"/>
      <rect x="40" y="132" width="8" height="8" class="original-pixel"/>
      <rect x="50" y="132" width="8" height="8" class="original-pixel"/>
      <rect x="60" y="132" width="8" height="8" class="original-pixel"/>
      <rect x="70" y="132" width="8" height="8" class="original-pixel"/>
      <rect x="80" y="132" width="8" height="8" class="original-pixel"/>
      <rect x="90" y="132" width="8" height="8" class="original-pixel"/>
      <rect x="100" y="132" width="8" height="8" class="original-pixel"/>
      <rect x="110" y="132" width="8" height="8" class="original-pixel"/>
      <rect x="120" y="132" width="8" height="8" class="original-pixel"/>
      <rect x="130" y="132" width="8" height="8" class="original-pixel"/>
      <rect x="140" y="132" width="8" height="8" class="original-pixel"/>
      <rect x="150" y="132" width="8" height="8" class="original-pixel"/>
      <rect x="160" y="132" width="8" height="8" class="original-pixel"/>
      <rect x="170" y="132" width="8" height="8" class="original-pixel"/>
      <rect x="180" y="132" width="8" height="8" class="original-pixel"/>
      <rect x="190" y="132" width="8" height="8" class="original-pixel"/>
      <rect x="200" y="132" width="8" height="8" class="original-pixel"/>
      <rect x="210" y="132" width="8" height="8" class="original-pixel"/>
      <rect x="220" y="132" width="8" height="8" class="original-pixel"/>
      <rect x="230" y="132" width="8" height="8" class="original-pixel"/>
      <rect x="240" y="132" width="8" height="8" class="original-pixel"/>
      <rect x="250" y="132" width="8" height="8" class="original-pixel"/>
      <rect x="260" y="132" width="8" height="8" class="original-pixel"/>

      <rect x="0" y="144" width="8" height="8" class="original-pixel"/>
      <rect x="10" y="144" width="8" height="8" class="original-pixel"/>
      <rect x="20" y="144" width="8" height="8" class="original-pixel"/>
      <rect x="30" y="144" width="8" height="8" class="original-pixel"/>
      <rect x="40" y="144" width="8" height="8" class="original-pixel"/>
      <rect x="50" y="144" width="8" height="8" class="original-pixel"/>
      <rect x="60" y="144" width="8" height="8" class="original-pixel"/>
      <rect x="70" y="144" width="8" height="8" class="original-pixel"/>
      <rect x="80" y="144" width="8" height="8" class="original-pixel"/>
      <rect x="90" y="144" width="8" height="8" class="original-pixel"/>
      <rect x="100" y="144" width="8" height="8" class="original-pixel"/>
      <rect x="110" y="144" width="8" height="8" class="original-pixel"/>
      <rect x="120" y="144" width="8" height="8" class="original-pixel"/>
      <rect x="130" y="144" width="8" height="8" class="original-pixel"/>
      <rect x="140" y="144" width="8" height="8" class="original-pixel"/>
      <rect x="150" y="144" width="8" height="8" class="original-pixel"/>
      <rect x="160" y="144" width="8" height="8" class="original-pixel"/>
      <rect x="170" y="144" width="8" height="8" class="original-pixel"/>
      <rect x="180" y="144" width="8" height="8" class="original-pixel"/>
      <rect x="190" y="144" width="8" height="8" class="original-pixel"/>
      <rect x="200" y="144" width="8" height="8" class="original-pixel"/>
      <rect x="210" y="144" width="8" height="8" class="original-pixel"/>
      <rect x="220" y="144" width="8" height="8" class="original-pixel"/>
      <rect x="230" y="144" width="8" height="8" class="original-pixel"/>
      <rect x="240" y="144" width="8" height="8" class="original-pixel"/>
      <rect x="250" y="144" width="8" height="8" class="original-pixel"/>
      <rect x="260" y="144" width="8" height="8" class="original-pixel"/>

      <rect x="0" y="156" width="8" height="8" class="original-pixel"/>
      <rect x="10" y="156" width="8" height="8" class="original-pixel"/>
      <rect x="20" y="156" width="8" height="8" class="original-pixel"/>
      <rect x="30" y="156" width="8" height="8" class="original-pixel"/>
      <rect x="40" y="156" width="8" height="8" class="original-pixel"/>
      <rect x="50" y="156" width="8" height="8" class="original-pixel"/>
      <rect x="60" y="156" width="8" height="8" class="original-pixel"/>
      <rect x="70" y="156" width="8" height="8" class="original-pixel"/>
      <rect x="80" y="156" width="8" height="8" class="original-pixel"/>
      <rect x="90" y="156" width="8" height="8" class="original-pixel"/>
      <rect x="100" y="156" width="8" height="8" class="original-pixel"/>
      <rect x="110" y="156" width="8" height="8" class="original-pixel"/>
      <rect x="120" y="156" width="8" height="8" class="original-pixel"/>
      <rect x="130" y="156" width="8" height="8" class="original-pixel"/>
      <rect x="140" y="156" width="8" height="8" class="original-pixel"/>
      <rect x="150" y="156" width="8" height="8" class="original-pixel"/>
      <rect x="160" y="156" width="8" height="8" class="original-pixel"/>
      <rect x="170" y="156" width="8" height="8" class="original-pixel"/>
      <rect x="180" y="156" width="8" height="8" class="original-pixel"/>
      <rect x="190" y="156" width="8" height="8" class="original-pixel"/>
      <rect x="200" y="156" width="8" height="8" class="original-pixel"/>
      <rect x="210" y="156" width="8" height="8" class="original-pixel"/>
      <rect x="220" y="156" width="8" height="8" class="original-pixel"/>
      <rect x="230" y="156" width="8" height="8" class="original-pixel"/>
      <rect x="240" y="156" width="8" height="8" class="original-pixel"/>
      <rect x="250" y="156" width="8" height="8" class="original-pixel"/>
      <rect x="260" y="156" width="8" height="8" class="original-pixel"/>

      <rect x="0" y="168" width="8" height="8" class="original-pixel"/>
      <rect x="10" y="168" width="8" height="8" class="original-pixel"/>
      <rect x="20" y="168" width="8" height="8" class="original-pixel"/>
      <rect x="30" y="168" width="8" height="8" class="original-pixel"/>
      <rect x="40" y="168" width="8" height="8" class="original-pixel"/>
      <rect x="50" y="168" width="8" height="8" class="original-pixel"/>
      <rect x="60" y="168" width="8" height="8" class="original-pixel"/>
      <rect x="70" y="168" width="8" height="8" class="original-pixel"/>
      <rect x="80" y="168" width="8" height="8" class="original-pixel"/>
      <rect x="90" y="168" width="8" height="8" class="original-pixel"/>
      <rect x="100" y="168" width="8" height="8" class="original-pixel"/>
      <rect x="110" y="168" width="8" height="8" class="original-pixel"/>
      <rect x="120" y="168" width="8" height="8" class="original-pixel"/>
      <rect x="130" y="168" width="8" height="8" class="original-pixel"/>
      <rect x="140" y="168" width="8" height="8" class="original-pixel"/>
      <rect x="150" y="168" width="8" height="8" class="original-pixel"/>
      <rect x="160" y="168" width="8" height="8" class="original-pixel"/>
      <rect x="170" y="168" width="8" height="8" class="original-pixel"/>
      <rect x="180" y="168" width="8" height="8" class="original-pixel"/>
      <rect x="190" y="168" width="8" height="8" class="original-pixel"/>
      <rect x="200" y="168" width="8" height="8" class="original-pixel"/>
      <rect x="210" y="168" width="8" height="8" class="original-pixel"/>
      <rect x="220" y="168" width="8" height="8" class="original-pixel"/>
      <rect x="230" y="168" width="8" height="8" class="original-pixel"/>
      <rect x="240" y="168" width="8" height="8" class="original-pixel"/>
      <rect x="250" y="168" width="8" height="8" class="original-pixel"/>
      <rect x="260" y="168" width="8" height="8" class="original-pixel"/>

      <rect x="0" y="180" width="8" height="8" class="original-pixel"/>
      <rect x="10" y="180" width="8" height="8" class="original-pixel"/>
      <rect x="20" y="180" width="8" height="8" class="original-pixel"/>
      <rect x="30" y="180" width="8" height="8" class="original-pixel"/>
      <rect x="40" y="180" width="8" height="8" class="original-pixel"/>
      <rect x="50" y="180" width="8" height="8" class="original-pixel"/>
      <rect x="60" y="180" width="8" height="8" class="original-pixel"/>
      <rect x="70" y="180" width="8" height="8" class="original-pixel"/>
      <rect x="80" y="180" width="8" height="8" class="original-pixel"/>
      <rect x="90" y="180" width="8" height="8" class="original-pixel"/>
      <rect x="100" y="180" width="8" height="8" class="original-pixel"/>
      <rect x="110" y="180" width="8" height="8" class="original-pixel"/>
      <rect x="120" y="180" width="8" height="8" class="original-pixel"/>
      <rect x="130" y="180" width="8" height="8" class="original-pixel"/>
      <rect x="140" y="180" width="8" height="8" class="original-pixel"/>
      <rect x="150" y="180" width="8" height="8" class="original-pixel"/>
      <rect x="160" y="180" width="8" height="8" class="original-pixel"/>
      <rect x="170" y="180" width="8" height="8" class="original-pixel"/>
      <rect x="180" y="180" width="8" height="8" class="original-pixel"/>
      <rect x="190" y="180" width="8" height="8" class="original-pixel"/>
      <rect x="200" y="180" width="8" height="8" class="original-pixel"/>
      <rect x="210" y="180" width="8" height="8" class="original-pixel"/>
      <rect x="220" y="180" width="8" height="8" class="original-pixel"/>
      <rect x="230" y="180" width="8" height="8" class="original-pixel"/>
      <rect x="240" y="180" width="8" height="8" class="original-pixel"/>
      <rect x="250" y="180" width="8" height="8" class="original-pixel"/>
      <rect x="260" y="180" width="8" height="8" class="original-pixel"/>
    </g>
    
    <!-- Metrics for original image -->
    <g transform="translate(115, 280)">
      <text x="0" y="0" class="metric-value">256×256</text>
      <text x="0" y="20" class="metric-label">Resolution</text>
      <text x="0" y="40" class="metric-value">65,536</text>
      <text x="0" y="60" class="metric-label">Pixels</text>
      <text x="100" y="0" class="metric-value">~65 KB</text>
      <text x="100" y="20" class="metric-label">File Size</text>
      <text x="100" y="40" class="metric-value">100%</text>
      <text x="100" y="60" class="metric-label">Quality</text>
    </g>
  </g>
  
  <!-- Arrow between sections -->
  <line x1="400" y1="255" x2="480" y2="255" 
        stroke="#10b981" 
        stroke-width="3" 
        stroke-dasharray="10,5" 
        marker-end="url(#arrowhead)"
        style="animation: dataFlow 3s linear infinite"/>
  
  <!-- Compressed Image Section (RIGHT) -->
  <g class="compressed-section" transform="translate(500, 80)">
    <!-- Background card -->
    <rect x="0" y="0" width="320" height="350" class="background-card"/>
    
    <!-- Section title -->
    <text x="160" y="30" class="section-title">Compressed Image</text>
    
    <!-- Image frame -->
    <rect x="23.5" y="54" width="280" height="200" class="image-frame"/>
    
    <!-- Sparse red pixel blocks (fewer, larger squares) -->
    <g transform="translate(30, 60)">
      <!-- Row 1 - fewer blocks -->
        <rect x="0" y="0" width="8" height="8" class="compressed-pixel"/>
        <rect x="10" y="0" width="8" height="8" class="compressed-pixel"/>
        <rect x="20" y="0" width="8" height="8" class="compressed-pixel"/>
        <rect x="30" y="0" width="8" height="8" class="compressed-pixel"/>
        <rect x="40" y="0" width="8" height="8" class="compressed-pixel"/>
        <rect x="50" y="0" width="8" height="8" class="compressed-pixel"/>
        <rect x="60" y="0" width="8" height="8" class="compressed-pixel"/>
        <rect x="70" y="0" width="8" height="8" class="compressed-pixel"/>
        <rect x="80" y="0" width="8" height="8" class="compressed-pixel"/>
        <rect x="90" y="0" width="8" height="8" class="compressed-pixel"/>
        <rect x="100" y="0" width="8" height="8" class="compressed-pixel"/>
        <rect x="110" y="0" width="8" height="8" class="compressed-pixel"/>
        <rect x="120" y="0" width="8" height="8" class="compressed-pixel"/>
        <rect x="130" y="0" width="8" height="8" class="compressed-pixel"/>
        <rect x="140" y="0" width="8" height="8" class="compressed-pixel"/>
        <rect x="150" y="0" width="8" height="8" class="compressed-pixel"/>
        <rect x="160" y="0" width="8" height="8" class="compressed-pixel"/>
        <rect x="170" y="0" width="8" height="8" class="compressed-pixel"/>
        <rect x="180" y="0" width="8" height="8" class="compressed-pixel"/>
        <rect x="190" y="0" width="8" height="8" class="compressed-pixel"/>
        <rect x="200" y="0" width="8" height="8" class="compressed-pixel"/>
        <rect x="210" y="0" width="8" height="8" class="compressed-pixel"/>
        <rect x="220" y="0" width="8" height="8" class="compressed-pixel"/>
        <rect x="230" y="0" width="8" height="8" class="compressed-pixel"/>
        <rect x="240" y="0" width="8" height="8" class="compressed-pixel"/>
        <rect x="250" y="0" width="8" height="8" class="compressed-pixel"/>
        <rect x="260" y="0" width="8" height="8" class="compressed-pixel"/>
      
      <!-- Row 2 -->
      <rect x="0" y="10" width="8" height="8" class="compressed-pixel"/>
      <rect x="10" y="10" width="8" height="8" class="compressed-pixel"/>
      <rect x="20" y="10" width="8" height="8" class="compressed-pixel"/>
      <rect x="30" y="10" width="8" height="8" class="compressed-pixel"/>
      <rect x="40" y="10" width="8" height="8" class="compressed-pixel"/>
      <rect x="50" y="10" width="8" height="8" class="compressed-pixel"/>
      <rect x="60" y="10" width="8" height="8" class="compressed-pixel"/>
      <rect x="70" y="10" width="8" height="8" class="compressed-pixel"/>
      <rect x="80" y="10" width="8" height="8" class="compressed-pixel"/>
      <rect x="90" y="10" width="8" height="8" class="compressed-pixel"/>
      <rect x="100" y="10" width="8" height="8" class="compressed-pixel"/>
      <rect x="110" y="10" width="8" height="8" class="compressed-pixel"/>
      <rect x="120" y="10" width="8" height="8" class="compressed-pixel"/>
      <rect x="130" y="10" width="8" height="8" class="compressed-pixel"/>
      <rect x="140" y="10" width="8" height="8" class="compressed-pixel"/>
      <rect x="150" y="10" width="8" height="8" class="compressed-pixel"/>
      <rect x="160" y="10" width="8" height="8" class="compressed-pixel"/>
      <rect x="170" y="10" width="8" height="8" class="compressed-pixel"/>
      <rect x="180" y="10" width="8" height="8" class="compressed-pixel"/>
      <rect x="190" y="10" width="8" height="8" class="compressed-pixel"/>
      <rect x="200" y="10" width="8" height="8" class="compressed-pixel"/>
      <rect x="210" y="10" width="8" height="8" class="compressed-pixel"/>
      <rect x="220" y="10" width="8" height="8" class="compressed-pixel"/>
      <rect x="230" y="10" width="8" height="8" class="compressed-pixel"/>
      <rect x="240" y="10" width="8" height="8" class="compressed-pixel"/>
      <rect x="250" y="10" width="8" height="8" class="compressed-pixel"/>
      <rect x="260" y="10" width="8" height="8" class="compressed-pixel"/>


      <!-- Row 3 -->
      <rect x="0" y="20" width="8" height="8" class="compressed-pixel"/>
      <rect x="10" y="20" width="8" height="8" class="compressed-pixel"/>
      <rect x="20" y="20" width="8" height="8" class="compressed-pixel"/>
      <rect x="30" y="20" width="8" height="8" class="compressed-pixel"/>
      <rect x="40" y="20" width="8" height="8" class="compressed-pixel"/>
      <rect x="50" y="20" width="8" height="8" class="compressed-pixel"/>
      <rect x="60" y="20" width="8" height="8" class="compressed-pixel"/>
      <rect x="70" y="20" width="8" height="8" class="compressed-pixel"/>
      <rect x="80" y="20" width="8" height="8" class="compressed-pixel"/>
      <rect x="90" y="20" width="8" height="8" class="compressed-pixel"/>
      <rect x="100" y="20" width="8" height="8" class="compressed-pixel"/>
      <rect x="110" y="20" width="8" height="8" class="compressed-pixel"/>
      <rect x="120" y="20" width="8" height="8" class="compressed-pixel"/>
      <rect x="130" y="20" width="8" height="8" class="compressed-pixel"/>
      <rect x="140" y="20" width="8" height="8" class="compressed-pixel"/>
      <rect x="150" y="20" width="8" height="8" class="compressed-pixel"/>
      <rect x="160" y="20" width="8" height="8" class="compressed-pixel"/>
      <rect x="170" y="20" width="8" height="8" class="compressed-pixel"/>
      <rect x="180" y="20" width="8" height="8" class="compressed-pixel"/>
      <rect x="190" y="20" width="8" height="8" class="compressed-pixel"/>
      <rect x="200" y="20" width="8" height="8" class="compressed-pixel"/>
      <rect x="210" y="20" width="8" height="8" class="compressed-pixel"/>
      <rect x="220" y="20" width="8" height="8" class="compressed-pixel"/>
      <rect x="230" y="20" width="8" height="8" class="compressed-pixel"/>
      <rect x="240" y="20" width="8" height="8" class="compressed-pixel"/>
      <rect x="250" y="20" width="8" height="8" class="compressed-pixel"/>
      <rect x="260" y="20" width="8" height="8" class="compressed-pixel"/>
      
      
      <!-- Row 4 -->
      <rect x="0" y="30" width="8" height="8" class="compressed-pixel"/>
      <rect x="10" y="30" width="8" height="8" class="compressed-pixel"/>
      <rect x="20" y="30" width="8" height="8" class="compressed-pixel"/>
      <rect x="30" y="30" width="8" height="8" class="compressed-pixel"/>
      <rect x="40" y="30" width="8" height="8" class="compressed-pixel"/>
      <rect x="50" y="30" width="8" height="8" class="compressed-pixel"/>
      <rect x="60" y="30" width="8" height="8" class="compressed-pixel"/>
      <rect x="70" y="30" width="8" height="8" class="compressed-pixel"/>
      <rect x="80" y="30" width="8" height="8" class="compressed-pixel"/>
      <rect x="90" y="30" width="8" height="8" class="compressed-pixel"/>
      <rect x="100" y="30" width="8" height="8" class="compressed-pixel"/>
      <rect x="110" y="30" width="8" height="8" class="compressed-pixel"/>
      <rect x="120" y="30" width="8" height="8" class="compressed-pixel"/>
      <rect x="130" y="30" width="8" height="8" class="compressed-pixel"/>  
      <rect x="140" y="30" width="8" height="8" class="compressed-pixel"/>
      <rect x="150" y="30" width="8" height="8" class="compressed-pixel"/>
      <rect x="160" y="30" width="8" height="8" class="compressed-pixel"/>
      <rect x="170" y="30" width="8" height="8" class="compressed-pixel"/>
      <rect x="180" y="30" width="8" height="8" class="compressed-pixel"/>
      <rect x="190" y="30" width="8" height="8" class="compressed-pixel"/>
      <rect x="200" y="30" width="8" height="8" class="compressed-pixel"/>
      <rect x="210" y="30" width="8" height="8" class="compressed-pixel"/>
      <rect x="220" y="30" width="8" height="8" class="compressed-pixel"/>
      <rect x="230" y="30" width="8" height="8" class="compressed-pixel"/>
      <rect x="240" y="30" width="8" height="8" class="compressed-pixel"/>
      <rect x="250" y="30" width="8" height="8" class="compressed-pixel"/>
      <rect x="260" y="30" width="8" height="8" class="compressed-pixel"/>
    </g>
    
    <!-- Metrics for compressed image -->
    <g transform="translate(115, 280)">
      <text x="0" y="0" class="metric-value">256×256</text>
      <text x="0" y="20" class="metric-label">Resolution</text>
      <text x="0" y="40" class="metric-value">~15,630</text>
      <text x="0" y="60" class="metric-label">SVD Values</text>
      <text x="100" y="0" class="metric-value">~15 KB</text>
      <text x="100" y="20" class="metric-label">File Size</text>
      <text x="100" y="40" class="metric-value">~95%</text>
      <text x="100" y="60" class="metric-label">Quality</text>
    </g>
  </g>
  
  
  <!-- Animated flow indicators -->
  <circle cx="430" cy="255" r="4" fill="#10b981" opacity="0.8">
    <animate attributeName="opacity" dur="2s" repeatCount="indefinite" values="0.3;1;0.3"/>
    </circle>
  <circle cx="450" cy="255" r="4" fill="#10b981" opacity="0.8">
    <animate attributeName="opacity" begin="0.5s" dur="2s" repeatCount="indefinite" values="0.3;1;0.3"/>
    </circle>
</svg>